#!OML:ASF F:\VICON\USERDATA\INSTALL\rory3\rory3.ASF
:FULLY-SPECIFIED
:DEGREES
121
root -0.5208281931880906 18.021749803685267 32.325482191388744 2.144596911966807 3.0640100955007528 -3.12744801807812
lfemur -39.97376056329815 1.6586590750799182 -17.15429629346034
ltibia 46.99592211840005
lfoot 2.0565711832027636 -10.622767308121047
ltoes -20.717596553588976
rfemur 0.19496629941160393 0.17750192416887067 34.48299342521021
rtibia -9.509016743323535
rfoot 8.223427285072573 -0.7792097314505098
rtoes -27.334364779488094
lowerback 1.0 -0.8907481852895267 0.9500685510746498
upperback -1.6233608281544234 0.9587258500673481 1.5756007117027386
thorax -5.824535571158313 0.16517772304899542 0.5875657883456159
lowerneck -17.22285454138087 -3.6975464835303287 -2.5441039606202875
upperneck 17.555181498028997 -5.128915840581514 1.359029983218326
head 8.562087841018457 -2.6448492036699207 0.1667009464386534
lclavicle 8.717007220451313e-15 -2.952308256749911e-14
lhumerus -61.64525156765465 -13.16483769530935 99.14995916540322
lradius 114.85187325665295
lwrist 52.21384884738859
lhand -27.777697639445297 2.5457124467433374
lfingers nan
lthumb -2.0476120559288407 32.83088653652986
rclavicle 1.4863571849693848e-14 -2.6539456068613913e-14
rhumerus -51.986321325775585 6.405379734802065 -94.15345825529035
rradius 137.7986697986627
rwrist -11.322483396019571
rhand -20.89403083547827 1.0
rfingers nan
rthumb 5.613312933889061 18.976900677417827
122
root -0.5007611504684776 18.049100885432395 32.540489292800686 2.1975884210643732 2.9315790059793216 -3.0215945267427706
lfemur -40.00968732528171 1.1559626128925595 -17.853520930349465
ltibia 42.49585371026993
lfoot 2.1800230372518836 -10.316300807033372
ltoes -23.853967540375777
rfemur 2.232007660464351 0.06776612328406295 33.718146497441076
rtibia -11.034707531928284
rfoot 14.824954321576502 0.33801137922848934
rtoes -20.81507305361203
lowerback 1.0 -0.833559928549793 0.881665169947726
upperback -1.9532466471444212 1.0794736516556667 1.4449196914363918
thorax -6.018940438172708 0.21972171006759125 0.530414228256671
lowerneck -15.586638331913967 -3.7828282651698877 -2.5806925762102555
upperneck 17.534431249592217 -5.190807179870451 1.3270587440429336
head 8.35589451760807 -2.6881798134960606 0.17484935816316716
lclavicle 3.452004845242892e-15 -1.3612934864918843e-14
lhumerus -62.8086526936868 -12.124243135970914 98.83740100584076
lradius 115.48144859962126
lwrist 52.75098722622124
lhand -30.750833278259815 7.304967146282145
lfingers nan
lthumb -4.928389396434668 37.530964830201
rclavicle 9.429902252363783e-15 -1.1087893995050914e-14
rhumerus -52.756698293961605 6.715980786115963 -94.1448841279536
rradius 138.18605057754354
rwrist -9.619102297193123
rhand -19.638260840331245 1.0
rfingers nan
rthumb 6.7869048146121225 14.354896566884056
123
root -0.515787420126989 18.04343250845513 31.941781529249255 1.8636990001751623 4.334283887736857 -3.0148539635995455
lfemur -39.89663146834141 -0.3750733957163175 -18.1335783540602
ltibia 37.82116993801539
lfoot 2.9691895688059553 -10.741322825426467
ltoes -24.96942259453526
rfemur 4.150395160888891 -1.0311561867118484 33.76964026656304
rtibia -12.191662387495477
rfoot 20.7591429781487 -0.07746935833881263
rtoes -21.425761389651825
lowerback 1.0 -1.1119652271636418 1.0794453285699765
upperback -2.19087944982055 0.7578790705271435 1.468338020633677
thorax -7.2481893809097695 0.06164943676873191 0.516522438787183
lowerneck -14.85045899767664 -3.887683463854986 -2.6917432887543358
upperneck 17.508180364895896 -5.2202144482380355 1.4131417647461304
head 8.281860301093298 -2.7139065611396402 0.2384324252625875
lclavicle -2.5051845171664047e-14 -2.6373473095667827e-15
lhumerus -63.529439061165824 -11.338343032380369 98.45598003390562
lradius 115.90656359685929
lwrist 53.586193045181105
lhand -31.8322675691105 8.615469082789726
lfingers nan
lthumb -6.005894479811821 38.78604377318601
rclavicle -1.936205849490829e-14 -1.2944898294069374e-16
rhumerus -53.18795310356755 6.7242900885854 -93.14928326525188
rradius 137.46162622574735
rwrist -9.41471747422077
rhand -15.642512758471605 1.0
rfingers nan
rthumb 10.635133349290328 16.244871408851015
124
root -0.508345817567913 18.058311514752802 32.2361986676959 1.7601195854620826 2.706044713694299 -2.9691245775105513
lfemur -38.779832600572135 -0.19711247109848418 -18.789417352112316
ltibia 32.7819351897094
lfoot 3.295004604203536 -10.430917155090777
ltoes -23.88229950415182
rfemur 6.006743914628885 -0.4549160475787204 32.66121738122472
rtibia -13.010675150326044
rfoot 25.724806422249866 0.5475377044342684
rtoes -24.49888132765996
lowerback 1.0 -0.8166606334353526 0.7602509360062663
upperback -1.8849298733637427 1.150124272428616 1.306133356769922
thorax -5.798613003802909 0.21763928356478035 0.40521391746088886
lowerneck -14.680947012836572 -3.947154051956053 -2.678047448589598
upperneck 17.57123479889287 -5.180906599761712 1.3487551041319839
head 8.296264676562483 -2.718405340400186 0.23844897620690603
lclavicle 5.132331020602972e-14 9.698649051275396e-15
lhumerus -64.15262435219579 -10.569114482291443 97.9816259495512
lradius 116.24407580149773
lwrist 54.76069282557653
lhand -32.96819292016235 7.459475869723342
lfingers nan
lthumb -7.183336932623378 37.52344572023948
rclavicle 5.6507973772820563e-14 1.1600041772482433e-14
rhumerus -53.675881865722374 6.99948340200388 -92.6605987140606
rradius 137.11955457082036
rwrist -6.749435655956709
rhand -14.586501064974383 1.0
rfingers nan
rthumb 11.58164395552977 13.870528340146965
125
root -0.5021688438473888 18.052831888223995 32.836292753686465 1.7858318043466634 2.6571837569569774 -2.503848282139308
lfemur -38.079466524868906 -0.7666916616907722 -19.601377880231993
ltibia 27.935667361157456
lfoot 3.4000993270221906 -10.457147912095571
ltoes -26.178608628165954
rfemur 7.11872756815368 -0.3959918509312583 31.78808337736017
rtibia -13.160763238083
rfoot 29.70697902203775 0.5391958692216416
rtoes -17.72217550433804
lowerback 1.0 -0.8255693099963353 0.42711729593375236
upperback -1.9651565547060894 1.1845366420939556 1.0159261305548941
thorax -5.632696146555228 0.20126647099540707 0.3843453621697207
lowerneck -14.63120791739449 -4.072164340030341 -2.579634973453043
upperneck 17.98026824675891 -5.236079413150962 1.2397415535946437
head 8.43683093329259 -2.7700302746481262 0.19034699246504933
lclavicle 2.1954209090400114e-15 -8.188498922220686e-15
lhumerus -64.9844486990338 -9.99734904090699 97.61254343266137
lradius 116.58104257077986
lwrist 54.846251512347635
lhand -37.27966565042016 7.490903640313401
lfingers nan
lthumb -11.288239545373415 37.49049551503451
rclavicle 7.358473245576371e-15 -5.7321767747812e-15
rhumerus -54.353831030504026 7.082185971996663 -92.63693366302769
rradius 137.03900806646595
rwrist -4.409294079077913
rhand -17.996619480844977 1.0
rfingers nan
rthumb 8.221045239917785 16.97468726488514
126
root -0.47962611055920745 18.044642303376367 33.58092898012062 1.9603428126117994 2.648295797466136 -2.094045914021306
lfemur -37.31764169388045 -1.2924563924408972 -20.393530345798002
ltibia 23.053828213511274
lfoot 3.636215536795282 -11.173974238921549
ltoes -28.405661215895698
rfemur 7.688048563614554 0.14430624518081192 31.170475597582953
rtibia -12.641278790866231
rfoot 32.53218912312421 0.24178782429233614
rtoes -5.492814203589578
lowerback 1.0 -0.8253873900160602 0.19762562823789231
upperback -2.2567851234015888 1.2392960273323075 0.7134011867931697
thorax -5.845304813933204 0.21310511190890113 0.34208944144330805
lowerneck -14.230253262190555 -4.213714740538092 -2.5514774602632375
upperneck 18.336075081732197 -5.308076852231334 1.2895737010412032
head 8.529965068991691 -2.8270507160488134 0.21413778563571634
lclavicle 3.36365629357001e-14 2.57690935023842e-14
lhumerus -65.9849878325075 -9.473858078531121 97.24334221520054
lradius 117.04321442004363
lwrist 55.01499700260757
lhand -38.966528360752 9.19793201510958
lfingers nan
lthumb -12.850067919736968 39.115968786297856
rclavicle 3.8267680927333376e-14 2.7849972472986346e-14
rhumerus -55.262704153147766 7.038308941346916 -92.9426550483271
rradius 136.85716282392417
rwrist -2.8180043737822373
rhand -21.206515800866264 1.0
rfingers nan
rthumb 5.040876931061165 19.027924893506203
127
root -0.46367677831028553 18.074929633619533 34.17581008777299 2.186377658642196 2.7320794376683653 -2.064992298910914
lfemur -36.481161398092674 -1.6680653203426172 -20.806519663331617
ltibia 18.36720281087102
lfoot 3.9705284075915896 -12.3340670683973
ltoes -30.604557437134275
rfemur 7.766985707769784 1.1275697030590446 31.26420056298195
rtibia -11.223414492024538
rfoot 33.991969340585584 -1.1935731638995257
rtoes 1.6026842583187024
lowerback 1.0 -0.8281695196440098 0.15166891185844222
upperback -2.626493350154275 1.3477498755144752 0.5954289038546962
thorax -6.538726489723674 0.2405625778306151 0.29318670677801156
lowerneck -14.318090558833418 -4.424952024735967 -2.6992350793893403
upperneck 18.754994359833837 -5.42315132966884 1.5230329691907016
head 8.72614672319573 -2.886665207044064 0.3277115785718533
lclavicle 1.7062057921181853e-14 3.9984142786121336e-15
lhumerus -66.87289331905801 -8.930977021683418 96.84162881922497
lradius 117.5019347788361
lwrist 55.463324549460594
lhand -37.96305768014089 9.003366385131093
lfingers nan
lthumb -11.818855923883273 38.97042286622552
rclavicle 2.2087687015860513e-14 6.092165762025955e-15
rhumerus -56.07496093558045 7.139847381426678 -93.1061350726233
rradius 136.72025457899056
rwrist -3.196723377288613
rhand -19.2591058849427 1.0
rfingers nan
rthumb 6.940104281103105 16.661731054455505
